<mxfile host="app.diagrams.net" modified="2021-10-09T08:01:13.497Z" agent="5.0 (X11; Linux x86_64) AppleWebKit/537.36 (KHTML, like Gecko) Chrome/92.0.4515.159 Safari/537.36" etag="58FBwRlT0BjaHEJzCOyx" version="15.5.0" type="github">
  <diagram id="KiLB6R4w7JQDAYNRYIwK" name="Page-1">
    <mxGraphModel dx="751" dy="503" grid="1" gridSize="10" guides="1" tooltips="1" connect="1" arrows="1" fold="1" page="1" pageScale="1" pageWidth="827" pageHeight="1169" math="0" shadow="0">
      <root>
        <mxCell id="0" />
        <mxCell id="1" parent="0" />
        <mxCell id="aPic2HSgoxVb9ZScRCVt-1" value="https://blog.csdn.net/kxjrzyk/article/details/81603049" style="text;html=1;align=center;verticalAlign=middle;resizable=0;points=[];autosize=1;strokeColor=none;fillColor=none;" vertex="1" parent="1">
          <mxGeometry x="40" y="70" width="290" height="20" as="geometry" />
        </mxCell>
        <mxCell id="aPic2HSgoxVb9ZScRCVt-3" value="fork" style="text;html=1;align=center;verticalAlign=middle;resizable=0;points=[];autosize=1;strokeColor=none;fillColor=none;" vertex="1" parent="1">
          <mxGeometry x="40" y="40" width="40" height="20" as="geometry" />
        </mxCell>
      </root>
    </mxGraphModel>
  </diagram>
</mxfile>
